<svg xmlns:xlink="http://www.w3.org/1999/xlink" height="31" version="1.1" width="181" xmlns="http://www.w3.org/2000/svg" viewBox="0 0 181 31"><defs></defs><g><g transform="matrix(1,0,0,1,0,0)"><path d="M45.26-5.10L45.26-5.10Q44.60-3.43 43.41-2.28Q42.23-1.13 40.74-0.53Q39.24 0.07 37.55 0.15Q35.85 0.22 34.21-0.26L34.21-0.26Q33.05-0.58 32.32-1.35Q31.59-2.11 31.23-3.21Q30.86-4.30 30.83-5.67Q30.79-7.03 31.01-8.56L31.01-8.56Q30.94-10.20 30.24-12.01Q29.55-13.81 27.91-15.27L27.91-15.27Q26.16-12.35 24.41-9.51Q22.66-6.67 20.48-4.46Q18.29-2.26 15.47-0.95Q12.64 0.36 8.74 0.26L8.74 0.26Q6.34 0.18 4.68-0.47Q3.02-1.13 2.02-2.19Q1.02-3.24 0.64-4.66Q0.26-6.09 0.44-7.72L0.44-7.72Q0.73-10.60 2.31-13.04Q3.90-15.49 6.43-17.27Q8.96-19.06 12.28-20.02Q15.60-20.99 19.42-20.88L19.42-20.88Q21.10-20.81 22.94-20.17Q24.78-19.53 26.45-18.36L26.45-18.36Q28.42-20.91 30.68-23.36Q32.94-25.80 35.64-27.64Q38.33-29.48 41.59-30.46Q44.85-31.45 48.83-31.08L48.83-31.08Q47.73-28.79 46.71-26.27Q45.69-23.76 44.78-21.21Q43.87-18.66 43.07-16.20Q42.27-13.74 41.63-11.55Q40.99-9.36 40.54-7.58Q40.08-5.79 39.83-4.63L39.83-4.63Q39.46-2.91 39.97-2.40Q40.48-1.89 41.39-2.15Q42.30-2.40 43.38-3.24Q44.45-4.08 45.26-5.10ZM13.41-6.49L13.41-6.49Q15.05-6.49 16.52-7.34Q18-8.20 19.46-9.64Q20.91-11.08 22.35-12.97Q23.79-14.87 25.36-16.91L25.36-16.91Q24.19-17.42 22.79-17.74Q21.39-18.07 19.64-18.11L19.64-18.11Q18.04-18.11 16.27-17.51Q14.50-16.91 13.03-15.76Q11.55-14.61 10.59-12.97Q9.62-11.33 9.58-9.33L9.58-9.33Q9.55-8.16 10.49-7.32Q11.44-6.49 13.41-6.49ZM28.64-16.51L28.64-16.51Q29.70-15.41 30.44-14.12Q31.19-12.83 31.55-11.33L31.55-11.33Q32.14-13.59 33.09-15.96Q34.03-18.33 35.16-20.55Q36.29-22.77 37.53-24.70Q38.77-26.64 39.97-28.06L39.97-28.06Q38.04-27.22 36.44-25.98Q34.83-24.74 33.47-23.23Q32.10-21.72 30.92-20.00Q29.73-18.29 28.64-16.51ZM52.21-5.10L52.21-5.10Q51.81-3.75 51.81-3.13Q51.81-2.51 52.21-2.44L52.21-2.44Q52.43-2.40 53.00-2.50Q53.56-2.59 54.31-2.95Q55.06-3.32 55.89-3.99Q56.73-4.66 57.46-5.83L57.46-5.83Q57.02-3.97 56.02-2.84Q55.02-1.71 53.82-1.07Q52.62-0.44 51.43-0.24Q50.25-0.04 49.45-0.04L49.45-0.04Q47.84-0.04 46.77-0.62Q45.69-1.20 45.13-2.26Q44.56-3.32 44.54-4.81Q44.53-6.30 45.07-8.09L45.07-8.09L50.50-26.16Q50.57-26.38 50.74-27.04Q50.90-27.69 50.94-28.46Q50.98-29.22 50.79-29.91Q50.61-30.61 49.99-30.94L49.99-30.94L51.81-30.94Q54.33-30.94 55.66-30.12Q56.99-29.30 57.50-28.09Q58.01-26.89 57.92-25.54Q57.83-24.19 57.50-23.10L57.50-23.10L52.21-5.10ZM111.94-5.10L111.94-5.10Q111.28-3.43 110.10-2.28Q108.91-1.13 107.42-0.53Q105.92 0.07 104.23 0.15Q102.53 0.22 100.89-0.26L100.89-0.26Q99.73-0.58 99-1.35Q98.27-2.11 97.91-3.21Q97.54-4.30 97.51-5.67Q97.47-7.03 97.69-8.56L97.69-8.56Q97.62-10.20 96.92-12.01Q96.23-13.81 94.59-15.27L94.59-15.27Q92.84-12.35 91.09-9.51Q89.34-6.67 87.16-4.46Q84.97-2.26 82.15-0.95Q79.32 0.36 75.43 0.26L75.43 0.26Q73.02 0.18 71.36-0.47Q69.70-1.13 68.70-2.19Q67.70-3.24 67.32-4.66Q66.94-6.09 67.12-7.72L67.12-7.72Q67.41-10.60 68.99-13.04Q70.58-15.49 73.11-17.27Q75.64-19.06 78.96-20.02Q82.28-20.99 86.10-20.88L86.10-20.88Q87.78-20.81 89.62-20.17Q91.46-19.53 93.13-18.36L93.13-18.36Q95.10-20.91 97.36-23.36Q99.62-25.80 102.32-27.64Q105.01-29.48 108.27-30.46Q111.53-31.45 115.51-31.08L115.51-31.08Q114.41-28.79 113.39-26.27Q112.37-23.76 111.46-21.21Q110.55-18.66 109.75-16.20Q108.95-13.74 108.31-11.55Q107.67-9.36 107.22-7.58Q106.76-5.79 106.51-4.63L106.51-4.63Q106.14-2.91 106.65-2.40Q107.16-1.89 108.07-2.15Q108.98-2.40 110.06-3.24Q111.13-4.08 111.94-5.10ZM80.09-6.49L80.09-6.49Q81.73-6.49 83.20-7.34Q84.68-8.20 86.14-9.64Q87.60-11.08 89.03-12.97Q90.47-14.87 92.04-16.91L92.04-16.91Q90.87-17.42 89.47-17.74Q88.07-18.07 86.32-18.11L86.32-18.11Q84.72-18.11 82.95-17.51Q81.18-16.91 79.71-15.76Q78.23-14.61 77.27-12.97Q76.30-11.33 76.26-9.33L76.26-9.33Q76.23-8.16 77.17-7.32Q78.12-6.49 80.09-6.49ZM95.32-16.51L95.32-16.51Q96.38-15.41 97.12-14.12Q97.87-12.83 98.23-11.33L98.23-11.33Q98.82-13.59 99.77-15.96Q100.71-18.33 101.84-20.55Q102.97-22.77 104.21-24.70Q105.45-26.64 106.65-28.06L106.65-28.06Q104.72-27.22 103.12-25.98Q101.51-24.74 100.15-23.23Q98.78-21.72 97.60-20.00Q96.41-18.29 95.32-16.51ZM132.05-11.91L129.97-4.77Q129.90-4.55 129.73-3.90Q129.57-3.24 129.53-2.48Q129.50-1.71 129.68-1.02Q129.86-0.33 130.48 0L130.48 0L128.66 0Q126.15 0 124.82-0.82Q123.49-1.64 122.98-2.86Q122.47-4.08 122.54-5.50Q122.61-6.92 122.94-8.09L122.94-8.09L125.49-16.47Q125.85-17.67 125.71-18.31Q125.56-18.95 125.13-19.04Q124.69-19.13 124.09-18.67Q123.49-18.22 122.94-17.23L122.94-17.23Q122.50-16.47 122.30-15.67Q122.10-14.87 121.81-13.99L121.81-13.99L118.97-4.77Q118.89-4.55 118.73-3.90Q118.57-3.24 118.53-2.48Q118.49-1.71 118.68-1.02Q118.86-0.33 119.48 0L119.48 0L117.66 0Q115.14 0 113.81-0.82Q112.48-1.64 111.97-2.84Q111.46-4.04 111.55-5.39Q111.64-6.74 111.97-7.83L111.97-7.83L114.81-17.05Q114.89-17.27 115.05-17.93Q115.21-18.58 115.25-19.35Q115.29-20.11 115.11-20.81Q114.92-21.50 114.30-21.83L114.30-21.83L116.13-21.83Q117.80-21.83 118.93-21.44Q120.06-21.06 120.77-20.42Q121.48-19.79 121.81-18.97Q122.14-18.15 122.21-17.27L122.21-17.27Q122.65-18.26 123.29-19.17Q123.92-20.08 124.76-20.75Q125.60-21.43 126.64-21.84Q127.68-22.26 128.88-22.26L128.88-22.26Q130.01-22.26 130.77-21.86Q131.54-21.46 132.01-20.79Q132.49-20.11 132.70-19.22Q132.92-18.33 132.92-17.31L132.92-17.31Q133.36-18.29 134.02-19.18Q134.67-20.08 135.49-20.77Q136.31-21.46 137.35-21.86Q138.39-22.26 139.59-22.26L139.59-22.26Q141.45-22.26 142.38-21.22Q143.31-20.19 143.54-18.62Q143.78-17.05 143.51-15.23Q143.23-13.41 142.76-11.91L142.76-11.91L140.79-5.10Q140.36-3.61 140.37-3.06Q140.39-2.51 140.79-2.44L140.79-2.44Q141.01-2.40 141.43-2.46Q141.85-2.51 142.45-2.84Q143.05-3.17 143.78-3.83Q144.51-4.48 145.28-5.65L145.28-5.65Q144.73-3.79 143.82-2.70Q142.91-1.60 141.89-1.00Q140.87-0.40 139.85-0.22Q138.83-0.04 138.02-0.04L138.02-0.04Q136.42-0.04 135.35-0.62Q134.27-1.20 133.71-2.26Q133.14-3.32 133.12-4.81Q133.11-6.30 133.65-8.09L133.65-8.09L136.20-16.47Q136.57-17.67 136.44-18.31Q136.31-18.95 135.87-19.06Q135.44-19.17 134.84-18.71Q134.23-18.26 133.69-17.27L133.69-17.27Q133.32-16.65 133.11-16.01Q132.89-15.38 132.72-14.70Q132.56-14.03 132.41-13.32Q132.27-12.61 132.05-11.91L132.05-11.91ZM161.09-0.04L161.09-0.04Q158.79 0 157.54-1.20Q156.28-2.40 156.17-4.48L156.17-4.48Q155.73-3.53 155.10-2.66Q154.46-1.79 153.64-1.13Q152.82-0.47 151.82-0.09Q150.81 0.29 149.61 0.29L149.61 0.29Q147.68 0.29 146.62-0.77Q145.57-1.82 145.11-3.43Q144.66-5.03 144.71-6.90Q144.77-8.78 145.06-10.38L145.06-10.38Q145.42-12.17 146.28-14.27Q147.13-16.36 148.46-18.15Q149.79-19.93 151.63-21.10Q153.47-22.26 155.77-22.19L155.77-22.19Q156.75-22.15 157.46-21.83Q158.17-21.50 158.67-20.99Q159.16-20.48 159.47-19.82Q159.78-19.17 159.89-18.47L159.89-18.47Q159.96-18.95 160.00-19.46Q160.03-19.97 159.96-20.42Q159.89-20.88 159.67-21.26Q159.45-21.64 159.05-21.86L159.05-21.86L160.87-21.86Q163.38-21.86 164.71-21.04Q166.04-20.22 166.55-19.02Q167.06-17.82 166.97-16.47Q166.88-15.12 166.55-14.03L166.55-14.03L163.86-5.10Q163.46-3.75 163.46-3.13Q163.46-2.51 163.86-2.44L163.86-2.44Q164.08-2.40 164.62-2.50Q165.17-2.59 165.92-2.95Q166.66-3.32 167.52-4.01Q168.38-4.70 169.14-5.87L169.14-5.87Q168.63-4.01 167.61-2.86Q166.59-1.71 165.41-1.09Q164.22-0.47 163.06-0.26Q161.89-0.04 161.09-0.04ZM156.43-7.07L156.43-7.07Q156.50-7.32 156.57-7.56Q156.64-7.80 156.72-8.09L156.72-8.09L159.41-16.62Q159.60-17.71 159.30-18.35Q159.01-18.98 158.50-19.02Q157.99-19.06 157.43-18.46Q156.86-17.85 156.50-16.47L156.50-16.47L153.26-6.30Q152.85-5.10 153-4.37Q153.15-3.64 153.55-3.46Q153.95-3.28 154.53-3.64Q155.11-4.01 155.66-4.99L155.66-4.99Q156.02-5.65 156.19-6.27Q156.35-6.89 156.43-7.07ZM175.41-5.10L175.41-5.10Q175.01-3.75 175.01-3.13Q175.01-2.51 175.41-2.44L175.41-2.44Q175.63-2.40 176.19-2.50Q176.76-2.59 177.50-2.95Q178.25-3.32 179.09-3.99Q179.93-4.66 180.66-5.83L180.66-5.83Q180.22-3.97 179.22-2.84Q178.21-1.71 177.01-1.07Q175.81-0.44 174.63-0.24Q173.44-0.04 172.64-0.04L172.64-0.04Q171.04-0.04 169.96-0.62Q168.89-1.20 168.32-2.26Q167.76-3.32 167.74-4.81Q167.72-6.30 168.27-8.09L168.27-8.09L173.70-26.16Q173.77-26.38 173.93-27.04Q174.10-27.69 174.13-28.46Q174.17-29.22 173.99-29.91Q173.81-30.61 173.19-30.94L173.19-30.94L175.01-30.94Q177.52-30.94 178.85-30.12Q180.18-29.30 180.69-28.09Q181.20-26.89 181.11-25.54Q181.02-24.19 180.69-23.10L180.69-23.10L175.41-5.10Z" transform="translate(-0.39625506072874495, 31.180662155151367)"></path></g></g></svg>