<?xml version="1.0" encoding="UTF-8" standalone="no"?>
<!-- Generator: Adobe Illustrator 19.0.0, SVG Export Plug-In . SVG Version: 6.00 Build 0)  -->

<svg
   version="1.1"
   id="Layer_1"
   x="0px"
   y="0px"
   viewBox="0 0 496.2 496.2"
   style="enable-background:new 0 0 496.2 496.2;"
   xml:space="preserve"
   sodipodi:docname="avatarMale.svg"
   inkscape:version="1.3 (0e150ed6c4, 2023-07-21)"
   xmlns:inkscape="http://www.inkscape.org/namespaces/inkscape"
   xmlns:sodipodi="http://sodipodi.sourceforge.net/DTD/sodipodi-0.dtd"
   xmlns="http://www.w3.org/2000/svg"
   xmlns:svg="http://www.w3.org/2000/svg"><defs
   id="defs36" /><sodipodi:namedview
   id="namedview36"
   pagecolor="#ffffff"
   bordercolor="#000000"
   borderopacity="0.25"
   inkscape:showpageshadow="2"
   inkscape:pageopacity="0.0"
   inkscape:pagecheckerboard="0"
   inkscape:deskcolor="#d1d1d1"
   inkscape:zoom="1.6344216"
   inkscape:cx="248.1"
   inkscape:cy="248.1"
   inkscape:window-width="1920"
   inkscape:window-height="1025"
   inkscape:window-x="-9"
   inkscape:window-y="21"
   inkscape:window-maximized="1"
   inkscape:current-layer="Layer_1" />&#10;&#10;<polygon
   style="fill:#3FBBD8;"
   points="306.4,352.4 189.6,352.4 208.3,320.3 248.1,315.1 287.9,320.3 "
   id="polygon1" />&#10;<path
   style="fill:#E9F2F4;"
   d="M248.1,496.2c70.2,0,133.6-29.2,178.7-76c-2.8-15.1-5.6-28.9-8.3-37.4  c-8.5-27.3-81.2-49.3-170.8-49.3s-161.5,22-170,49.3c-2.6,8.5-5.5,22.2-8.3,37.4C114.5,467,177.9,496.2,248.1,496.2z"
   id="path2" />&#10;<rect
   id="SVGCleanerId_0"
   x="140.3"
   y="433.6"
   style="fill:#C9DEE2;"
   width="63"
   height="10.5" />&#10;<g
   id="g2">&#10;	<rect
   id="SVGCleanerId_0_1_"
   x="140.3"
   y="433.6"
   style="fill:#C9DEE2;"
   width="63"
   height="10.5" />&#10;</g>&#10;<path
   style="fill:#78DDF4;"
   d="M247.7,333.4c-1.4,0-2.9,0-4.3,0c-0.4,0-0.8,0-1.1,0c-1.1,0-2.1,0-3.2,0c-0.2,0-0.5,0-0.7,0  c-19.7,0.3-37.9,1.8-52.9,4.1c0,0,4,37.9,4,58.6l58.5,69l58.3-68.9c0-42.6-0.1-58.9-0.1-58.9C289.5,334.8,270.3,333.4,247.7,333.4z"
   id="path3" />&#10;<path
   style="fill:#e2a379;fill-opacity:1"
   d="M287,282.1h-77.8c12.1,36.6,1,53.3,1,53.3l26.9,6.1h22l26.9-6.1C286,335.4,274.9,318.7,287,282.1z"
   id="path4" />&#10;<g
   id="g6">&#10;	<path
   style="fill:#263A44;"
   d="M248.1,340.2l-15.7,4.7c0,0,5.4,25.6,15.7,25.6c10.3,0,15.7-25.6,15.7-25.6L248.1,340.2z"
   id="path5" />&#10;	<path
   style="fill:#263A44;"
   d="M248.1,468.9c0,0,16.1-29.4,23.7-45.8l-19.7-65.7H244l-19.5,65.4   C232.1,439.3,248.1,468.9,248.1,468.9z"
   id="path6" />&#10;</g>&#10;<path
   style="fill:#f4b382;fill-opacity:1"
   d="M336.4,175.2c0-92.4-39.5-113.6-88.3-113.6c-48.7,0-88.3,21.2-88.3,113.6c0,31.3,6.2,55.8,15.5,74.7  c20.4,41.6,55.7,56.1,72.8,56.1s52.4-14.5,72.8-56.1C330.2,231,336.4,206.5,336.4,175.2z"
   id="path7" />&#10;<g
   id="g9">&#10;	<path
   style="fill:#191919;"
   d="M247.6,292.9h0.5C247.9,292.9,247.8,292.9,247.6,292.9L247.6,292.9z"
   id="path8" />&#10;	<path
   style="fill:#191919;"
   d="M248.6,292.9L248.6,292.9c-0.2,0-0.3,0-0.5,0H248.6z"
   id="path9" />&#10;</g>&#10;<g
   id="g11">&#10;	<path
   style="fill:#f4b382;fill-opacity:1"
   d="M170.4,238.7c-8.4,1.4-14.4,0.1-19.1-27.7s1.7-31.5,10.1-32.9L170.4,238.7z"
   id="path10" />&#10;	<path
   style="fill:#f4b382;fill-opacity:1"
   d="M325.9,238.7c8.4,1.4,14.3,0.1,19.1-27.7c4.8-27.8-1.7-31.5-10.1-32.9L325.9,238.7z"
   id="path11" />&#10;</g>&#10;<path
   style="fill:#cd895b;fill-opacity:1"
   d="M274.8,257c0,2.6-11.9,9.5-26.7,9.5s-26.7-7-26.7-9.5c0-1.6,8.5-6.1,14.1-6.9  c3.6-0.5,12.5,2.9,12.5,2.9s8.8-3.4,12.4-2.9C266.2,250.9,274.8,257,274.8,257z"
   id="path12" />&#10;<path
   style="fill:#c07d50;fill-opacity:1"
   d="M274.8,257c0,2.6-11.9,12.4-26.7,12.4s-26.7-9.9-26.7-12.4c0,0,10.9,1.3,26.7,1.3  S274.8,257,274.8,257z"
   id="path13" />&#10;<g
   id="g16">&#10;	<path
   style="fill:#141414;"
   d="M336.4,175.2c0-92.4-30.3-116.1-88.3-116.1s-88.3,23.7-88.3,116.1l39.8-53.1c0,0,26.5,20,48.5,20   s46.2-20,46.2-20L336.4,175.2z"
   id="path14" />&#10;	<path
   style="fill:#141414;"
   d="M165.5,140.8c-4.2,10.9-5.6,24.4-5.6,37.5c0,0,8.8-1.9,8.8,2.6l2.8,27.6l3.9-1.9   c-0.2-23,4.9-68,4.9-68L165.5,140.8z"
   id="path15" />&#10;	<path
   style="fill:#141414;"
   d="M330.8,140.8c4.2,10.9,5.6,24.4,5.6,37.5c0,0-8.8-1.9-8.8,2.6l-2.8,27.6l-3.9-1.9   c0.2-23-4.9-66.2-4.9-66.2L330.8,140.8z"
   id="path16" />&#10;</g>&#10;<g
   id="g18">&#10;	<path
   style="fill:#FFFFFF;"
   d="M311.5,337.4L311.5,337.4L311.5,337.4L311.5,337.4z"
   id="path17" />&#10;	<path
   style="fill:#FFFFFF;"
   d="M298.5,335.9L298.5,335.9L298.5,335.9z"
   id="path18" />&#10;</g>&#10;<path
   style="fill:#4ECFF2;"
   d="M306.5,336.6l-18.6-16.2l-39.8,19.8c0,0,58.1,32.8,58.4,32.6V336.6z"
   id="path19" />&#10;<polygon
   style="fill:#C9DEE2;"
   points="358,345.9 293.3,324.9 248.1,469.1 330,373.1 319,362.1 335.5,362.1 "
   id="polygon19" />&#10;<path
   style="fill:#4ECFF2;"
   d="M189.7,336.6l18.6-16.2l39.8,19.9c0,0-58.1,32.8-58.3,32.6v-36.3H189.7z"
   id="path20" />&#10;<polygon
   style="fill:#C9DEE2;"
   points="138.1,345.9 203.1,324.9 248.1,469.1 166.1,373.1 177.1,362.1 160.6,362.1 "
   id="polygon20" />&#10;<g
   id="g21">&#10;	<rect
   x="154.8"
   y="412.6"
   style="fill:#48A1AF;"
   width="12.5"
   height="21"
   id="rect20" />&#10;	<path
   style="fill:#48A1AF;"
   d="M162.3,409.1c0-0.7-0.6-1.2-1.2-1.2s-1.2,0.6-1.2,1.2v4.2h2.5v-4.2H162.3z"
   id="path21" />&#10;</g>&#10;<g
   id="g22">&#10;</g>&#10;<g
   id="g23">&#10;</g>&#10;<g
   id="g24">&#10;</g>&#10;<g
   id="g25">&#10;</g>&#10;<g
   id="g26">&#10;</g>&#10;<g
   id="g27">&#10;</g>&#10;<g
   id="g28">&#10;</g>&#10;<g
   id="g29">&#10;</g>&#10;<g
   id="g30">&#10;</g>&#10;<g
   id="g31">&#10;</g>&#10;<g
   id="g32">&#10;</g>&#10;<g
   id="g33">&#10;</g>&#10;<g
   id="g34">&#10;</g>&#10;<g
   id="g35">&#10;</g>&#10;<g
   id="g36">&#10;</g>&#10;</svg>
