<svg style="enable-background:new 0 0 512 512" height="512" version="1.1" viewBox="0 0 512 512" width="512" x="0"
    xmlns="http://www.w3.org/2000/svg" y="0" xml:space="preserve"><g><path d="M350.285 266.354H162.947a8 8 0 0 1 0-16h187.338a8 8 0 0 1 0 16zm-187.954-48.699h153.826a8 8 0 0 0 0-16H162.331a8 8 0 0 0 0 16zm-.616-48.698H318.26a8 8 0 0 0 0-16H161.715a8 8 0 0 0 0 16zm159.003 130.095H192.051a8 8 0 0 0 0 16h128.667a8 8 0 0 0 0-16zm-65.716-186.794a8 8 0 0 0 8 8h60.912a8 8 0 0 0 0-16h-60.912a8 8 0 0 0-8 8zm-92.671-37.464h21.963a8 8 0 0 0 0-16h-21.963a8 8 0 0 0 0 16zm-1.232 45.464h74.771a8 8 0 0 0 0-16h-74.771a8 8 0 0 0 0 16zm49.737-45.464h83.789a8 8 0 0 0 0-16h-83.789a8 8 0 0 0 0 16zM501.95 501.347A8 8 0 0 1 496 504H289.812a7.997 7.997 0 0 1-7.954-8.851c3.625-33.872 22.051-62.776 48.463-80.604h-217.11c-8.753 0-15.874-7.121-15.874-15.874V276.819l-22.328-38.672c-.489.092-.98.154-1.471.154a7.998 7.998 0 0 1-6.936-4.001l-40.858-70.768a5.639 5.639 0 0 0-1.547 2.605 5.598 5.598 0 0 0 .548 4.278l34.562 59.864a8 8 0 0 1-13.857 8l-34.562-59.864c-2.883-4.993-3.645-10.824-2.146-16.418 1.499-5.595 5.075-10.264 10.068-13.147l5.766-3.329.004-.003 3.75-2.165-4.466-7.736c-2.122-3.675-2.683-7.964-1.581-12.077s3.733-7.546 7.408-9.667l6.481-3.743c3.676-2.121 7.964-2.683 12.077-1.581s7.546 3.733 9.667 7.408l4.466 7.735 2.589-1.495a8.002 8.002 0 0 1 10.928 2.928l21.435 37.127V23.874C97.337 15.121 104.458 8 113.211 8h241.37c2.278 0 4.433.464 6.413 1.34.056.024.115.04.17.065.138.063.27.141.406.208.23.114.46.226.685.351.218.121.429.255.641.387.202.126.406.247.604.383.247.17.485.356.724.541.153.118.31.228.459.352.386.321.761.66 1.122 1.021l44.208 44.208c.361.361.7.736 1.021 1.122.124.149.233.305.351.457.186.24.373.479.543.727.134.195.253.396.377.595.134.216.27.43.393.651s.234.446.345.672c.069.139.148.273.213.414.026.057.042.117.067.175a15.753 15.753 0 0 1 1.339 6.41v44.689h63.057c13.359 0 24.228 10.869 24.228 24.228v81.333c0 13.359-10.869 24.228-24.228 24.228h-63.057v52.121c22.598 8.754 38.671 30.708 38.671 56.359 0 20.615-10.383 38.842-26.187 49.753 41.068 13.145 71.992 49.369 76.807 94.356a7.997 7.997 0 0 1-2.003 6.201zM392.907 306.612c-24.497 0-44.427 19.93-44.427 44.427 0 24.489 19.916 44.413 44.401 44.427h.053c24.485-.014 44.401-19.938 44.401-44.427-.001-24.497-19.931-44.427-44.428-44.427zm84.813-177.841H358.862c-4.537 0-8.228 3.691-8.228 8.228v81.333c0 4.537 3.691 8.228 8.228 8.228h13.732a8 8 0 0 1 8 8v13.181l17.986-18.723a8 8 0 0 1 5.769-2.458h73.371c4.537 0 8.228-3.691 8.228-8.228v-81.333c0-4.537-3.691-8.228-8.228-8.228zM365.842 56.82h21.503l-21.503-21.506zm-205.51 257.258-53.977-93.491-17.257 9.963 53.977 93.491 16.236 8.196zM42.189 135.352l6.339-3.66-4.425-7.664-6.339 3.66zm34.27 84.019 26.535-15.32-36.949-63.997-26.535 15.32zm36.878 179.174h242.292c-14.08-11.073-23.149-28.245-23.149-47.506 0-33.32 27.107-60.427 60.427-60.427 1.942 0 3.861.101 5.756.281v-38.867l-20.3 21.132a8 8 0 0 1-13.769-5.542v-25.057h-5.732c-13.359 0-24.228-10.869-24.228-24.228v-81.333c0-13.359 10.869-24.228 24.228-24.228h39.801V72.82h-36.884c-6.582 0-11.937-5.355-11.937-11.937v-36.88L113.337 24v165.965l7.514 13.014a8 8 0 0 1 .799 6.071 7.986 7.986 0 0 1-1.668 3.138l55.4 95.955a8.007 8.007 0 0 1 1.059 4.449l-1.692 30.112.899 1.558c27.004-9.606 40.401-.919 50.373 5.563 5.971 3.882 9.043 5.716 13.58 4.934 2.062-.354 6.098-3.067 9.659-5.462 11.117-7.476 29.722-19.985 47.755-.507a8 8 0 0 1-.435 11.305 8 8 0 0 1-11.305-.435c-7.94-8.577-14.043-5.856-27.087 2.914-5.37 3.611-10.442 7.021-15.881 7.954a27.932 27.932 0 0 1-4.728.412c-8.431 0-14.671-4.057-20.278-7.701-9.414-6.12-18.305-11.899-41.963-1.671-.023.01-.047.016-.07.026-.096.041-.193.072-.29.108a8.197 8.197 0 0 1-.608.205 7.836 7.836 0 0 1-.968.213c-.099.016-.198.035-.298.047a7.866 7.866 0 0 1-.904.058l-.029.002c-.043 0-.085-.008-.128-.008a8.022 8.022 0 0 1-.777-.05c-.097-.011-.194-.026-.291-.04a7.81 7.81 0 0 1-.665-.13c-.088-.021-.176-.039-.263-.063a8.042 8.042 0 0 1-.857-.285c-.065-.026-.126-.059-.191-.086a8.083 8.083 0 0 1-.643-.31 8.209 8.209 0 0 1-.834-.523c-.077-.055-.156-.106-.231-.164a7.933 7.933 0 0 1-.698-.601c-.048-.047-.092-.098-.138-.146a7.954 7.954 0 0 1-1.148-1.489c-.022-.036-.049-.068-.07-.104l-4.136-7.165-27.363-13.812a7.995 7.995 0 0 1-3.323-3.142l-17.075-29.575v94.011zM486.683 488c-8.915-44.201-47.756-76.523-93.756-76.533h-.042c-46.001.01-84.843 32.332-93.757 76.534zm-27.096-318.344h-82.592a8 8 0 0 0 0 16h82.592a8 8 0 0 0 0-16zm-90.592-19.068a8 8 0 0 0 8 8h82.592a8 8 0 0 0 0-16h-82.592a8 8 0 0 0-8 8zm90.592 46.136h-82.592a8 8 0 0 0 0 16h82.592a8 8 0 0 0 0-16z" data-original="#000000" fill="#000000" opacity="1"></path></g></svg>