<svg style="enable-background:new 0 0 512 512" class="" height="512" version="1.1" viewBox="0 0 64 64" width="512"
    x="0" xmlns="http://www.w3.org/2000/svg" y="0" xml:space="preserve"><g><path  class="" d="M43.6 16.9c0-.3-.4-8.4-1.2-12-.5-2.1-1.9-3.5-4-4-.4-.1-1.4-.4-2.2.3-.5.5-.5 1.3-.1 1.8.4.4 1 .5 1.5.2h.2c1.2.3 1.9.9 2.1 2.1.7 3.4 1.1 11.5 1.1 11.6 0 .9-.1 1.4-.5 1.6h-.2l-.2.1c-.5.2-1.2-.1-1.7-.4-.1 0-6.9-4.5-9.5-6.8-.9-.8-1.1-1.7-.7-2.9 0-.1.1-.2.1-.2.5-.3.7-.9.6-1.4-.2-.7-.9-1-1.6-.8-1 .3-1.3 1.3-1.4 1.7-.7 2.1-.2 4 1.4 5.5 2.7 2.5 9.5 6.9 9.8 7.1 1 .7 1.9.9 2.7.9h.3c1.9 6.8-1 14.2-7.3 17.8-3.6 2.1-7.9 2.6-11.9 1.5s-7.4-3.7-9.5-7.3c-2.9-5-2.8-11.1.2-16h.1c.4.1.9.2 1.3.2.9 0 1.7-.2 2.5-.7 2.4-1.4 3.2-4.4 1.8-6.8s-4.4-3.2-6.8-1.8c-1.2.7-2 1.7-2.3 3s0 2.7.7 3.8c.2.4.5.7.8 1-3.5 5.7-3.6 12.7-.3 18.6 2.4 4.2 6.3 7.2 11 8.5 1.6.4 3.2.6 4.8.6 2.6 0 5.2-.6 7.6-1.7l12.1 18.2c.1.2.3.5.5.7 1.2 1.3 2.8 2.1 4.5 2.3h.5c1.6 0 3.1-.6 4.3-1.6 1.3-1.1 2.1-2.7 2.3-4.5.1-1.8-.4-3.5-1.6-4.8L40.6 35.2c2.7-4.3 3.5-9.8 2-14.9.6-.6 1.1-1.6 1-3.4zm-32.8-5c.2-.6.6-1.2 1.2-1.5.4-.2.8-.3 1.2-.3.9 0 1.7.5 2.2 1.3.7 1.2.3 2.7-.9 3.4-.6.3-1.3.4-1.9.2s-1.2-.6-1.5-1.2c-.4-.6-.5-1.3-.3-1.9zM53.5 54c.7.8 1.1 1.9 1 3s-.6 2.1-1.4 2.8c-1.7 1.5-4.3 1.3-5.8-.4-.1-.1-.2-.3-.3-.4L35 40.8c1.6-1 2.9-2.2 4.1-3.5z" data-original="#343433" opacity="1"></path></g></svg>