<?xml version="1.0" encoding="UTF-8" standalone="no"?>
<!-- Generator: Adobe Illustrator 25.4.1, SVG Export Plug-In . SVG Version: 6.00 Build 0)  -->

<svg
   version="1.1"
   x="0px"
   y="0px"
   viewBox="0 0 500 500"
   style="enable-background:new 0 0 500 500;"
   xml:space="preserve"
   id="svg9"
   sodipodi:docname="logo.svg"
   inkscape:version="1.3 (0e150ed6c4, 2023-07-21)"
   xmlns:inkscape="http://www.inkscape.org/namespaces/inkscape"
   xmlns:sodipodi="http://sodipodi.sourceforge.net/DTD/sodipodi-0.dtd"
   xmlns="http://www.w3.org/2000/svg"
   xmlns:svg="http://www.w3.org/2000/svg"><defs
   id="defs9" /><sodipodi:namedview
   id="namedview9"
   pagecolor="#ffffff"
   bordercolor="#000000"
   borderopacity="0.25"
   inkscape:showpageshadow="2"
   inkscape:pageopacity="0.0"
   inkscape:pagecheckerboard="0"
   inkscape:deskcolor="#d1d1d1"
   inkscape:zoom="1.1469272"
   inkscape:cx="396.27624"
   inkscape:cy="335.2436"
   inkscape:window-width="1920"
   inkscape:window-height="1025"
   inkscape:window-x="-9"
   inkscape:window-y="21"
   inkscape:window-maximized="1"
   inkscape:current-layer="OBJECT" />&#10;<style
   type="text/css"
   id="style1">&#10;	.st0{fill:#FDFDFB;}&#10;	.st1{fill:#FF7BE2;}&#10;	.st2{fill:#0026A0;}&#10;	.st3{fill:#E5E2E9;}&#10;	.st4{fill:none;stroke:#FF7BE2;stroke-width:7.954;stroke-linecap:round;stroke-linejoin:round;stroke-miterlimit:10;}&#10;	.st5{fill:none;stroke:#0026A0;stroke-width:7.954;stroke-linecap:round;stroke-linejoin:round;stroke-miterlimit:10;}&#10;	.st6{font-family:'RubikRoman-ExtraBold';}&#10;	.st7{font-size:44px;}&#10;	.st8{letter-spacing:5;}&#10;	.st9{font-family:'RubikRoman-Regular';}&#10;	.st10{font-size:18.5515px;}&#10;	.st11{letter-spacing:2;}&#10;</style>&#10;&#10;<g
   id="OBJECT"
   transform="matrix(2.5825585,0,0,2.6936381,-395.63963,-295.19759)">&#10;	&#10;<g
   id="g9"
   transform="translate(0,10.998178)"><g
     id="g10"
     transform="translate(0,-11.644593)"><g
       id="g7"
       transform="matrix(0.76184086,0,0,0.76184086,59.539787,32.751226)">&#10;		<path
   class="st1"
   d="m 228.3,242.9 c 0,0 18.8,-4.5 19.2,-23.2 0.2,-9.9 -5.1,-19 -13.4,-24.2 -1.9,-1.2 -4,-2.3 -6.4,-3.4 -6.1,-2.7 -11.7,-6.5 -16,-11.6 -0.9,-1.1 -1.8,-2.2 -2.7,-3.5 -2,-2.9 -6.2,-3.1 -8.2,-0.3 -0.1,0.2 -0.3,0.4 -0.4,0.6 -0.8,1.4 -0.8,3.2 -0.1,4.7 2.1,4 7.3,13 15.4,17.5 0,0 -21.5,-1.6 -28.3,-30.5 0,0 -2,-12.5 -11.2,-17.6 -2,-1.1 -4.3,0.9 -3.5,3 1.6,4.6 3.6,12.9 4.6,27.3 0,0 0.2,27 32.5,38.9 9.2,3.4 16.3,11.1 18.4,20.7 -0.1,0.6 0,1 0.1,1.6 z"
   id="path1"
   style="fill:#000000;fill-opacity:1" />&#10;		<g
   id="g2">&#10;			<path
   class="st2"
   d="m 310.9,256.5 c -1.6,0 -2.8,-1.3 -2.8,-2.8 0,-1.6 1.3,-2.8 2.8,-2.8 7.8,0 14.2,-6.4 14.2,-14.3 0,-1.6 1.3,-2.8 2.8,-2.8 1.6,0 2.8,1.3 2.8,2.8 0.1,10.9 -8.8,19.9 -19.8,19.9 z"
   id="path2"
   style="fill:#000000;fill-opacity:1" />&#10;		</g>&#10;		<g
   id="g3">&#10;			<path
   class="st1"
   d="m 189.1,256.5 c -11,0 -19.9,-9 -19.9,-20 0,-1.6 1.3,-2.8 2.8,-2.8 1.6,0 2.8,1.3 2.8,2.8 0,7.9 6.4,14.3 14.2,14.3 1.6,0 2.8,1.3 2.8,2.8 0.1,1.6 -1.1,2.9 -2.7,2.9 z"
   id="path3"
   style="fill:#000000;fill-opacity:1" />&#10;		</g>&#10;		<path
   class="st2"
   d="m 271.7,242.9 c 0,0 -18.8,-4.5 -19.2,-23.2 -0.2,-9.9 5.1,-19 13.4,-24.2 1.9,-1.2 4,-2.3 6.4,-3.4 6.1,-2.7 11.7,-6.5 16,-11.6 0.9,-1.1 1.8,-2.2 2.7,-3.5 2,-2.9 6.2,-3.1 8.2,-0.3 0.1,0.2 0.3,0.4 0.4,0.6 0.8,1.4 0.8,3.2 0.1,4.7 -2.1,4 -7.3,13 -15.4,17.5 0,0 21.5,-1.6 28.3,-30.5 0,0 2,-12.5 11.2,-17.6 2,-1.1 4.3,0.9 3.5,3 -1.6,4.6 -3.6,12.9 -4.6,27.3 0,0 -0.2,27 -32.5,38.9 -9.2,3.4 -16.3,11.1 -18.4,20.7 0.1,0.6 0,1 -0.1,1.6 z"
   id="path4"
   style="fill:#000000;fill-opacity:1" />&#10;		<path
   class="st3"
   d="m 269.2,171.3 c -0.5,3.4 -2.4,6.5 -4.6,9.2 -3.9,4.8 -8.9,8.7 -14.6,11.1 -4.2,-1.8 -8.1,-4.4 -11.5,-7.7 0,0 0,0 0,0 -0.7,-0.7 -1.4,-1.4 -2.1,-2.2 -0.3,-0.4 -0.7,-0.8 -1,-1.2 -2.2,-2.7 -4,-5.8 -4.6,-9.2 -0.5,-3.4 0.5,-7.2 3.1,-9.4 2.8,-2.3 7,-2.3 10.3,-0.9 3.3,1.4 5.4,4.6 5.7,8 0.3,-3.4 2.4,-6.5 5.7,-8 3.3,-1.4 7.5,-1.4 10.3,0.9 1.5,1.2 2.5,3 2.9,4.8 0.1,0.3 0.2,0.7 0.2,1.1 0,0 0,0 0,0 0.3,1.1 0.3,2.3 0.2,3.5 z"
   id="path5"
   style="fill:#000000;fill-opacity:1" />&#10;		<ellipse
   class="st1"
   cx="293.5"
   cy="151.60001"
   rx="16.700001"
   ry="16.799999"
   id="ellipse5"
   style="fill:#000000;fill-opacity:1" />&#10;		<ellipse
   class="st2"
   cx="206.5"
   cy="151.60001"
   rx="16.700001"
   ry="16.799999"
   id="ellipse6"
   style="fill:#000000;fill-opacity:1" />&#10;		<path
   class="st4"
   d="m 282.5,244 c 3.4,13.1 15.5,22.6 29.5,22 16.1,-0.7 28.7,-14.4 28,-30.6 -0.4,-9.5 -5.2,-17.8 -12.5,-22.9 v 0 -12.5 h 9.8"
   id="path6"
   style="fill:#000000;fill-opacity:0;stroke:#000000;stroke-width:7.5829;stroke-linecap:round;stroke-linejoin:round;stroke-dasharray:none;stroke-opacity:1" />&#10;		<path
   class="st5"
   d="m 217.5,244 c -3.4,13.1 -15.5,22.6 -29.5,22 -16.1,-0.7 -28.7,-14.4 -28,-30.6 0.4,-9.5 5.2,-17.8 12.5,-22.9 v 0 -12.5 h -9.8"
   id="path7"
   style="fill:#000000;fill-opacity:0;stroke:#000000;stroke-width:7.5829;stroke-linecap:round;stroke-linejoin:round;stroke-dasharray:none;stroke-opacity:1" />&#10;	</g><path
       d="m 220.65782,267.31624 v 0 q -0.4257,1.03271 -1.19323,1.74385 -0.76107,0.71116 -1.72211,1.08218 -0.96748,0.37104 -2.05751,0.42051 -1.09647,0.0434 -2.15424,-0.25353 v 0 q -0.74817,-0.19789 -1.21902,-0.67405 -0.47085,-0.46997 -0.70303,-1.15019 -0.23864,-0.67405 -0.258,-1.52125 -0.0258,-0.841 0.1161,-1.78712 v 0 q -0.0452,-1.01417 -0.49663,-2.13345 -0.44505,-1.11309 -1.50282,-2.01594 v 0 q -1.12872,1.80569 -2.25744,3.5619 -1.12874,1.75623 -2.53479,3.12286 -1.41253,1.36045 -3.23138,2.17054 -1.82531,0.81009 -4.34075,0.74826 v 0 q -1.54796,-0.0495 -2.61863,-0.45142 -1.07069,-0.40814 -1.71566,-1.06363 -0.64498,-0.64931 -0.89009,-1.52742 -0.2451,-0.8843 -0.12893,-1.89226 v 0 q 0.18704,-1.78095 1.20612,-3.28982 1.02553,-1.51505 2.65735,-2.61579 1.63181,-1.10691 3.77315,-1.70055 2.14135,-0.59983 4.60519,-0.53181 v 0 q 1.08358,0.0434 2.27034,0.43905 1.18678,0.39577 2.26391,1.11928 v 0 q 1.27062,-1.57689 2.72828,-3.09193 1.45767,-1.50887 3.19914,-2.6467 1.735,-1.13784 3.83764,-1.74385 2.10266,-0.61222 4.66971,-0.38339 v 0 q -0.7095,1.4161 -1.36738,2.97442 -0.65788,1.55215 -1.24482,3.12903 -0.58694,1.57691 -1.10292,3.09812 -0.51599,1.52126 -0.92878,2.87551 -0.41278,1.35427 -0.70303,2.45501 -0.2967,1.10689 -0.45795,1.82423 v 0 q -0.23864,1.06363 0.0903,1.37901 0.32894,0.31537 0.91588,0.15458 0.58692,-0.15458 1.2835,-0.67405 0.69014,-0.51945 1.2126,-1.15021 z m -20.54277,-0.85955 v 0 q 1.05777,0 2.00591,-0.52563 0.95456,-0.53182 1.89624,-1.42229 0.93524,-0.89048 1.86402,-2.05923 0.92877,-1.17493 1.94141,-2.43644 v 0 q -0.75464,-0.31538 -1.65762,-0.51327 -0.90299,-0.20407 -2.03171,-0.22881 v 0 q -1.03197,0 -2.1736,0.37105 -1.14161,0.37103 -2.08975,1.08217 -0.95457,0.71114 -1.57376,1.7253 -0.62563,1.01416 -0.65143,2.25094 v 0 q -0.0193,0.7235 0.58693,1.24295 0.61273,0.51326 1.88336,0.51326 z m 9.82313,-6.19623 v 0 q 0.68367,0.68022 1.16096,1.47794 0.48374,0.79772 0.71594,1.7253 v 0 q 0.38053,-1.39756 0.99327,-2.86314 0.60628,-1.46558 1.33511,-2.83838 0.72885,-1.37283 1.52862,-2.56632 0.79978,-1.19968 1.57377,-2.07777 v 0 q -1.24482,0.51944 -2.2768,1.28625 -1.03843,0.76679 -1.91562,1.70056 -0.88362,0.93375 -1.6447,1.99738 -0.76752,1.05744 -1.47055,2.15818 z m 15.20228,7.05578 v 0 q -0.25799,0.83482 -0.25799,1.21824 0,0.3834 0.25799,0.42668 v 0 q 0.14191,0.0248 0.50953,-0.0371 0.3612,-0.0556 0.84493,-0.27828 0.48374,-0.22881 1.01909,-0.64312 0.54179,-0.41432 1.01261,-1.13784 v 0 q -0.28378,1.1502 -0.92876,1.84899 -0.64499,0.69876 -1.41897,1.09453 -0.77399,0.38959 -1.54152,0.51326 -0.76107,0.12376 -1.27706,0.12376 v 0 q -1.03844,0 -1.72856,-0.35866 -0.69658,-0.35866 -1.05778,-1.01415 -0.36763,-0.65549 -0.38055,-1.5769 -0.006,-0.92139 0.34184,-2.0283 v 0 l 3.50227,-11.17425 q 0.0452,-0.1361 0.15475,-0.54418 0.10328,-0.40195 0.12892,-0.87811 0.0258,-0.46998 -0.0967,-0.89667 -0.11611,-0.43286 -0.51599,-0.63693 v 0 h 1.17388 q 1.62536,0 2.48319,0.50707 0.85783,0.50708 1.18677,1.25533 0.32894,0.74206 0.27089,1.57688 -0.0581,0.83482 -0.27089,1.50887 v 0 z m 38.52493,0 v 0 q -0.42568,1.03271 -1.18676,1.74385 -0.76753,0.71116 -1.72856,1.08218 -0.96747,0.37104 -2.0575,0.42051 -1.09647,0.0434 -2.15425,-0.25353 v 0 q -0.74819,-0.19789 -1.21902,-0.67405 -0.47084,-0.46997 -0.70304,-1.15019 -0.23863,-0.67405 -0.25799,-1.52125 -0.0258,-0.841 0.11611,-1.78712 v 0 q -0.0452,-1.01417 -0.49665,-2.13345 -0.44503,-1.11309 -1.50281,-2.01594 v 0 q -1.12872,1.80569 -2.25745,3.5619 -1.12872,1.75623 -2.53479,3.12286 -1.41252,1.36045 -3.23138,2.17054 -1.8253,0.81009 -4.33429,0.74826 v 0 q -1.55441,-0.0495 -2.62509,-0.45142 -1.07068,-0.40814 -1.71565,-1.06363 -0.645,-0.64931 -0.89009,-1.52742 -0.24509,-0.8843 -0.12893,-1.89226 v 0 q 0.18704,-1.78095 1.20613,-3.28982 1.02552,-1.51505 2.65732,-2.61579 1.63181,-1.10691 3.77317,-1.70055 2.14136,-0.59983 4.60519,-0.53181 v 0 q 1.08358,0.0434 2.27035,0.43905 1.18677,0.39577 2.2639,1.11928 v 0 q 1.27062,-1.57689 2.72828,-3.09193 1.45767,-1.50887 3.19912,-2.6467 1.735,-1.13784 3.83766,-1.74385 2.10264,-0.61222 4.66969,-0.38339 v 0 q -0.70947,1.4161 -1.36736,2.97442 -0.65789,1.55215 -1.24482,3.12903 -0.58695,1.57691 -1.10294,3.09812 -0.51598,1.52126 -0.92876,2.87551 -0.4128,1.35427 -0.70304,2.45501 -0.2967,1.10689 -0.45795,1.82423 v 0 q -0.23863,1.06363 0.0903,1.37901 0.32894,0.31537 0.91589,0.15458 0.58693,-0.15458 1.28351,-0.67405 0.69013,-0.51945 1.21257,-1.15021 z m -20.54276,-0.85955 v 0 q 1.05778,0 2.00591,-0.52563 0.95458,-0.53182 1.89626,-1.42229 0.94167,-0.89048 1.86399,-2.05923 0.92879,-1.17493 1.94142,-2.43644 v 0 q -0.75463,-0.31538 -1.65761,-0.51327 -0.90298,-0.20407 -2.0317,-0.22881 v 0 q -1.03198,0 -2.17361,0.37105 -1.14162,0.37103 -2.08975,1.08217 -0.95459,0.71114 -1.57377,1.7253 -0.62563,1.01416 -0.65141,2.25094 v 0 q -0.0193,0.7235 0.58692,1.24295 0.61273,0.51326 1.88335,0.51326 z m 9.82312,-6.19623 v 0 q 0.68369,0.68022 1.16098,1.47794 0.48374,0.79772 0.71592,1.7253 v 0 q 0.38056,-1.39756 0.99329,-2.86314 0.60628,-1.46558 1.33512,-2.83838 0.72882,-1.37283 1.5286,-2.56632 0.7998,-1.19968 1.57376,-2.07777 v 0 q -1.24482,0.51944 -2.2768,1.28625 -1.03841,0.76679 -1.91559,1.70056 -0.88363,0.93375 -1.64471,1.99738 -0.76752,1.05744 -1.47057,2.15818 z m 23.69029,2.84457 -1.34156,4.41528 q -0.0452,0.13609 -0.15475,0.53801 -0.10328,0.40813 -0.12892,0.87811 -0.0193,0.47614 0.0967,0.90284 0.1161,0.42668 0.51599,0.63075 v 0 h -1.17387 q -1.61891,0 -2.47675,-0.50708 -0.85783,-0.50707 -1.18677,-1.26151 -0.32895,-0.75444 -0.28379,-1.63253 0.0451,-0.87812 0.25799,-1.60163 v 0 l 1.64471,-5.18208 q 0.23219,-0.74207 0.14193,-1.13782 -0.0967,-0.39578 -0.37409,-0.45143 -0.2838,-0.0556 -0.67077,0.2288 -0.38701,0.27828 -0.74175,0.89047 v 0 q -0.28378,0.46998 -0.41278,0.96468 -0.12893,0.49472 -0.31605,1.03889 v 0 l -1.83175,5.70153 q -0.0516,0.13609 -0.15475,0.53801 -0.10328,0.40813 -0.12892,0.87811 -0.0258,0.47614 0.0967,0.90284 0.11611,0.42668 0.51599,0.63075 v 0 h -1.17387 q -1.62537,0 -2.4832,-0.50708 -0.85783,-0.50707 -1.18676,-1.24913 -0.32895,-0.74208 -0.2709,-1.57689 0.0581,-0.83483 0.2709,-1.50887 v 0 l 1.83174,-5.70154 q 0.0516,-0.13608 0.15475,-0.54416 0.10329,-0.40196 0.12892,-0.87812 0.0259,-0.46998 -0.0903,-0.90284 -0.1226,-0.4267 -0.52245,-0.63076 v 0 h 1.18032 q 1.07714,0 1.80597,0.24118 0.72882,0.23498 1.18677,0.63075 0.45793,0.38958 0.67077,0.89665 0.21285,0.50707 0.25801,1.05126 v 0 q 0.28379,-0.61219 0.69659,-1.17494 0.40633,-0.56272 0.94812,-0.97704 0.54178,-0.4205 1.21257,-0.67405 0.67078,-0.2597 1.44476,-0.2597 v 0 q 0.72884,0 1.21902,0.24735 0.49664,0.24734 0.79978,0.66167 0.3096,0.42049 0.44504,0.97086 0.14192,0.55036 0.14192,1.18112 v 0 q 0.28379,-0.60602 0.70948,-1.15639 0.41924,-0.55654 0.94812,-0.98323 0.5289,-0.42669 1.19968,-0.67403 0.67078,-0.24735 1.44477,-0.24735 v 0 q 1.19966,0 1.7995,0.6431 0.59984,0.63694 0.74819,1.60781 0.15475,0.97086 -0.0193,2.09633 -0.18059,1.12547 -0.48373,2.05305 v 0 l -1.27062,4.21121 q -0.27735,0.92141 -0.2709,1.26151 0.0133,0.34013 0.2709,0.38341 v 0 q 0.14192,0.0248 0.4128,-0.0117 0.27089,-0.031 0.65789,-0.23498 0.38697,-0.20407 0.85782,-0.61221 0.47083,-0.40195 0.96748,-1.12546 v 0 q -0.35475,1.15019 -0.94168,1.82423 -0.58695,0.68023 -1.24481,1.05128 -0.6579,0.37103 -1.31578,0.48233 -0.65788,0.11127 -1.18033,0.11127 v 0 q -1.03198,0 -1.72212,-0.35866 -0.69658,-0.35866 -1.05776,-1.01415 -0.36765,-0.65549 -0.38054,-1.5769 -0.006,-0.92139 0.34184,-2.0283 v 0 l 1.64473,-5.18208 q 0.23862,-0.74207 0.15473,-1.13783 -0.0838,-0.39577 -0.36763,-0.4638 -0.27736,-0.0679 -0.66434,0.21645 -0.39344,0.27827 -0.74174,0.89047 v 0 q -0.23865,0.38339 -0.37408,0.77916 -0.14193,0.38958 -0.25156,0.81009 -0.10329,0.41432 -0.19994,0.85338 -0.0903,0.43904 -0.2322,0.87192 z m 18.73036,7.34025 v 0 q -1.48345,0.0247 -2.28969,-0.71732 -0.81269,-0.74206 -0.88363,-2.0283 v 0 q -0.2838,0.58745 -0.69013,1.12545 -0.4128,0.53799 -0.94168,0.94614 -0.5289,0.40814 -1.17388,0.64312 -0.65142,0.23497 -1.42542,0.23497 v 0 q -1.24481,0 -1.9285,-0.65549 -0.67723,-0.64929 -0.97393,-1.6449 -0.29023,-0.98942 -0.25799,-2.1458 0.0386,-1.16256 0.22574,-2.15198 v 0 q 0.2322,-1.10691 0.78689,-2.40552 0.54823,-1.29244 1.40608,-2.39937 0.85781,-1.1007 2.04459,-1.82423 1.18676,-0.71731 2.67022,-0.67405 v 0 q 0.6321,0.0248 1.09004,0.22263 0.45793,0.20406 0.78043,0.51946 0.31604,0.31535 0.51599,0.72351 0.19995,0.40193 0.27089,0.83482 v 0 q 0.0451,-0.29683 0.071,-0.61221 0.0193,-0.31537 -0.0259,-0.59365 -0.0451,-0.28445 -0.18704,-0.51945 -0.14191,-0.23498 -0.39988,-0.37102 v 0 h 1.17387 q 1.6189,0 2.47674,0.50707 0.85783,0.50708 1.18678,1.24914 0.32894,0.74207 0.27089,1.57689 -0.0581,0.83482 -0.27089,1.50886 v 0 l -1.73503,5.52219 q -0.25798,0.83482 -0.25798,1.21824 0,0.3834 0.25798,0.42668 v 0 q 0.14192,0.0248 0.4902,-0.0371 0.35474,-0.0556 0.83847,-0.27828 0.47729,-0.22881 1.03198,-0.65549 0.55469,-0.42669 1.04488,-1.15021 v 0 q -0.32894,1.15021 -0.98684,1.86135 -0.65786,0.71114 -1.41896,1.09456 -0.76752,0.38339 -1.51572,0.51325 -0.75461,0.13609 -1.27061,0.13609 z m -3.00563,-4.34725 v 0 q 0.0451,-0.15458 0.0903,-0.30302 0.0452,-0.14841 0.0967,-0.32774 v 0 l 1.73502,-5.27484 q 0.12259,-0.67405 -0.071,-1.0698 -0.18705,-0.3896 -0.51599,-0.41433 -0.32895,-0.0247 -0.69012,0.3463 -0.36766,0.37722 -0.59984,1.23059 v 0 l -2.08975,6.28899 q -0.26445,0.74206 -0.1677,1.19349 0.0967,0.45142 0.35474,0.56274 0.25799,0.11127 0.63209,-0.11127 0.37408,-0.2288 0.72884,-0.83482 v 0 q 0.23219,-0.40813 0.34182,-0.79153 0.10329,-0.38342 0.15475,-0.49472 z m 12.24181,1.21821 v 0 q -0.25799,0.83482 -0.25799,1.21824 0,0.3834 0.25799,0.42668 v 0 q 0.14192,0.0248 0.5031,-0.0371 0.36763,-0.0556 0.84492,-0.27828 0.48375,-0.22881 1.02553,-0.64312 0.54179,-0.41432 1.01263,-1.13784 v 0 q -0.2838,1.1502 -0.92879,1.84899 -0.65143,0.69876 -1.42541,1.09453 -0.77398,0.38959 -1.53506,0.51326 -0.76755,0.12376 -1.28353,0.12376 v 0 q -1.03197,0 -1.72856,-0.35866 -0.69012,-0.35866 -1.05777,-1.01415 -0.3612,-0.65549 -0.37409,-1.5769 -0.0133,-0.92139 0.34184,-2.0283 v 0 l 3.50228,-11.17425 q 0.0452,-0.1361 0.1484,-0.54418 0.10961,-0.40195 0.12893,-0.87811 0.0259,-0.46998 -0.0903,-0.89667 -0.1161,-0.43286 -0.51599,-0.63693 v 0 h 1.17388 q 1.6189,0 2.47674,0.50707 0.85783,0.50708 1.18678,1.25533 0.32893,0.74206 0.27089,1.57688 -0.0581,0.83482 -0.27089,1.50887 v 0 z"
       id="path1-9"
       style="stroke-width:0.631546" /></g></g></g>&#10;&#10;</svg>
