<?xml version="1.0" encoding="UTF-8" standalone="no"?>
<!-- Generator: Adobe Illustrator 25.4.1, SVG Export Plug-In . SVG Version: 6.00 Build 0)  -->

<svg
   version="1.1"
   x="0px"
   y="0px"
   viewBox="0 0 500 500"
   style="enable-background:new 0 0 500 500;"
   xml:space="preserve"
   id="svg9"
   sodipodi:docname="logo2.svg"
   inkscape:version="1.3 (0e150ed6c4, 2023-07-21)"
   xmlns:inkscape="http://www.inkscape.org/namespaces/inkscape"
   xmlns:sodipodi="http://sodipodi.sourceforge.net/DTD/sodipodi-0.dtd"
   xmlns="http://www.w3.org/2000/svg"
   xmlns:svg="http://www.w3.org/2000/svg"><defs
   id="defs9" /><sodipodi:namedview
   id="namedview9"
   pagecolor="#ffffff"
   bordercolor="#000000"
   borderopacity="0.25"
   inkscape:showpageshadow="2"
   inkscape:pageopacity="0.0"
   inkscape:pagecheckerboard="0"
   inkscape:deskcolor="#d1d1d1"
   inkscape:zoom="1.1469272"
   inkscape:cx="396.27624"
   inkscape:cy="335.2436"
   inkscape:window-width="1920"
   inkscape:window-height="1025"
   inkscape:window-x="-9"
   inkscape:window-y="21"
   inkscape:window-maximized="1"
   inkscape:current-layer="svg9" />&#10;<style
   type="text/css"
   id="style1">&#10;	.st0{fill:#FDFDFB;}&#10;	.st1{fill:#FF7BE2;}&#10;	.st2{fill:#0026A0;}&#10;	.st3{fill:#E5E2E9;}&#10;	.st4{fill:none;stroke:#FF7BE2;stroke-width:7.954;stroke-linecap:round;stroke-linejoin:round;stroke-miterlimit:10;}&#10;	.st5{fill:none;stroke:#0026A0;stroke-width:7.954;stroke-linecap:round;stroke-linejoin:round;stroke-miterlimit:10;}&#10;	.st6{font-family:'RubikRoman-ExtraBold';}&#10;	.st7{font-size:44px;}&#10;	.st8{letter-spacing:5;}&#10;	.st9{font-family:'RubikRoman-Regular';}&#10;	.st10{font-size:18.5515px;}&#10;	.st11{letter-spacing:2;}&#10;</style>&#10;&#10;<g
   id="OBJECT"
   transform="matrix(3.2164467,0,0,3.3547908,-554.11168,-429.01618)">&#10;	&#10;<g
   id="g7"
   transform="matrix(0.76184086,0,0,0.76184086,59.539787,48.274551)">&#10;		<path
   class="st1"
   d="m 228.3,242.9 c 0,0 18.8,-4.5 19.2,-23.2 0.2,-9.9 -5.1,-19 -13.4,-24.2 -1.9,-1.2 -4,-2.3 -6.4,-3.4 -6.1,-2.7 -11.7,-6.5 -16,-11.6 -0.9,-1.1 -1.8,-2.2 -2.7,-3.5 -2,-2.9 -6.2,-3.1 -8.2,-0.3 -0.1,0.2 -0.3,0.4 -0.4,0.6 -0.8,1.4 -0.8,3.2 -0.1,4.7 2.1,4 7.3,13 15.4,17.5 0,0 -21.5,-1.6 -28.3,-30.5 0,0 -2,-12.5 -11.2,-17.6 -2,-1.1 -4.3,0.9 -3.5,3 1.6,4.6 3.6,12.9 4.6,27.3 0,0 0.2,27 32.5,38.9 9.2,3.4 16.3,11.1 18.4,20.7 -0.1,0.6 0,1 0.1,1.6 z"
   id="path1"
   style="fill:#000000;fill-opacity:1" />&#10;		<g
   id="g2">&#10;			<path
   class="st2"
   d="m 310.9,256.5 c -1.6,0 -2.8,-1.3 -2.8,-2.8 0,-1.6 1.3,-2.8 2.8,-2.8 7.8,0 14.2,-6.4 14.2,-14.3 0,-1.6 1.3,-2.8 2.8,-2.8 1.6,0 2.8,1.3 2.8,2.8 0.1,10.9 -8.8,19.9 -19.8,19.9 z"
   id="path2"
   style="fill:#000000;fill-opacity:1" />&#10;		</g>&#10;		<g
   id="g3">&#10;			<path
   class="st1"
   d="m 189.1,256.5 c -11,0 -19.9,-9 -19.9,-20 0,-1.6 1.3,-2.8 2.8,-2.8 1.6,0 2.8,1.3 2.8,2.8 0,7.9 6.4,14.3 14.2,14.3 1.6,0 2.8,1.3 2.8,2.8 0.1,1.6 -1.1,2.9 -2.7,2.9 z"
   id="path3"
   style="fill:#000000;fill-opacity:1" />&#10;		</g>&#10;		<path
   class="st2"
   d="m 271.7,242.9 c 0,0 -18.8,-4.5 -19.2,-23.2 -0.2,-9.9 5.1,-19 13.4,-24.2 1.9,-1.2 4,-2.3 6.4,-3.4 6.1,-2.7 11.7,-6.5 16,-11.6 0.9,-1.1 1.8,-2.2 2.7,-3.5 2,-2.9 6.2,-3.1 8.2,-0.3 0.1,0.2 0.3,0.4 0.4,0.6 0.8,1.4 0.8,3.2 0.1,4.7 -2.1,4 -7.3,13 -15.4,17.5 0,0 21.5,-1.6 28.3,-30.5 0,0 2,-12.5 11.2,-17.6 2,-1.1 4.3,0.9 3.5,3 -1.6,4.6 -3.6,12.9 -4.6,27.3 0,0 -0.2,27 -32.5,38.9 -9.2,3.4 -16.3,11.1 -18.4,20.7 0.1,0.6 0,1 -0.1,1.6 z"
   id="path4"
   style="fill:#000000;fill-opacity:1" />&#10;		<path
   class="st3"
   d="m 269.2,171.3 c -0.5,3.4 -2.4,6.5 -4.6,9.2 -3.9,4.8 -8.9,8.7 -14.6,11.1 -4.2,-1.8 -8.1,-4.4 -11.5,-7.7 0,0 0,0 0,0 -0.7,-0.7 -1.4,-1.4 -2.1,-2.2 -0.3,-0.4 -0.7,-0.8 -1,-1.2 -2.2,-2.7 -4,-5.8 -4.6,-9.2 -0.5,-3.4 0.5,-7.2 3.1,-9.4 2.8,-2.3 7,-2.3 10.3,-0.9 3.3,1.4 5.4,4.6 5.7,8 0.3,-3.4 2.4,-6.5 5.7,-8 3.3,-1.4 7.5,-1.4 10.3,0.9 1.5,1.2 2.5,3 2.9,4.8 0.1,0.3 0.2,0.7 0.2,1.1 0,0 0,0 0,0 0.3,1.1 0.3,2.3 0.2,3.5 z"
   id="path5"
   style="fill:#000000;fill-opacity:1" />&#10;		<ellipse
   class="st1"
   cx="293.5"
   cy="151.60001"
   rx="16.700001"
   ry="16.799999"
   id="ellipse5"
   style="fill:#000000;fill-opacity:1" />&#10;		<ellipse
   class="st2"
   cx="206.5"
   cy="151.60001"
   rx="16.700001"
   ry="16.799999"
   id="ellipse6"
   style="fill:#000000;fill-opacity:1" />&#10;		<path
   class="st4"
   d="m 282.5,244 c 3.4,13.1 15.5,22.6 29.5,22 16.1,-0.7 28.7,-14.4 28,-30.6 -0.4,-9.5 -5.2,-17.8 -12.5,-22.9 v 0 -12.5 h 9.8"
   id="path6"
   style="fill:#000000;fill-opacity:0;stroke:#000000;stroke-width:7.5829;stroke-linecap:round;stroke-linejoin:round;stroke-dasharray:none;stroke-opacity:1" />&#10;		<path
   class="st5"
   d="m 217.5,244 c -3.4,13.1 -15.5,22.6 -29.5,22 -16.1,-0.7 -28.7,-14.4 -28,-30.6 0.4,-9.5 5.2,-17.8 12.5,-22.9 v 0 -12.5 h -9.8"
   id="path7"
   style="fill:#000000;fill-opacity:0;stroke:#000000;stroke-width:7.5829;stroke-linecap:round;stroke-linejoin:round;stroke-dasharray:none;stroke-opacity:1" />&#10;	</g></g>&#10;&#10;</svg>
