<svg style="enable-background:new 0 0 512 512" class="" height="512" version="1.1" viewBox="0 0 512 512" width="512"
    x="0" xmlns="http://www.w3.org/2000/svg" y="0" xml:space="preserve"><g><path d="m138.824 465.678 9.04 14.173-47.502 30.294-68.574-107.516 47.481-30.294 59.407 93.109c.011.021.021.053.032.075.042.052.073.106.116.159zm275.929-108.9-77.402 49.61c-2.012 9.488-7.613 17.868-15.429 22.851-5.111 3.258-10.946 4.909-17.059 4.909-3.812 0-7.741-.639-11.67-1.938l-55.754-18.432c-3.961-1.31-6.112-5.59-4.802-9.562a7.559 7.559 0 0 1 9.551-4.802l55.754 18.432c5.995 1.981 11.319 1.523 15.855-1.363 4.877-3.109 8.37-8.977 9.104-15.291.032-.298.085-.575.16-.852.256-8.348-5.132-16.164-13.119-18.805L187.561 341.05c-11.915-3.94-23.362-2.641-34.043 3.876l-53.156 32.339 47.214 74.005 26.248-15.962a7.575 7.575 0 0 1 6.304-.713l100.765 33.308c13.534 4.494 27.036 2.79 39.037-4.909l115.47-74.005c8.87-5.686 11.468-17.559 5.793-26.461-5.697-8.859-17.56-11.447-26.44-5.75zm68.159-125.852c0 10.148-3.929 19.657-11.064 26.78l-58.917 58.949-58.917-58.949c-14.758-14.758-14.758-38.792 0-53.582 7.113-7.113 16.633-11.032 26.78-11.032 10.158 0 19.678 3.919 26.791 11.042a7.564 7.564 0 0 0 10.691 0c14.78-14.758 38.824-14.758 53.582 0 7.125 7.125 11.054 16.644 11.054 26.792zm-38.898 16.515c0-4.185-3.386-7.571-7.56-7.571h-15.962v-15.951c0-4.174-3.386-7.56-7.56-7.56s-7.56 3.386-7.56 7.56v15.951h-15.919a7.566 7.566 0 0 0-7.571 7.571c0 4.174 3.386 7.56 7.571 7.56h15.919v15.919c0 4.174 3.386 7.56 7.56 7.56s7.56-3.386 7.56-7.56v-15.919h15.962a7.56 7.56 0 0 0 7.56-7.56zM192.31 326.697l122.381 40.474a34.23 34.23 0 0 1 21.808 21.797l68.873-44.148v-14.333l-62.058-62.09c-20.647-20.647-20.647-54.274 0-74.953v-.011a63.278 63.278 0 0 1 1.938-1.842c-9.583-3.375-19.731-5.143-29.932-5.143h-69.81c-49.653 0-90.052 40.389-90.052 90.042v50.718c11.765-4.441 24.319-4.664 36.852-.511zm88.104-155.38c47.481 0 86.102-38.621 86.102-86.102 0-47.459-38.621-86.07-86.102-86.07-47.459 0-86.07 38.611-86.07 86.07 0 47.481 38.611 86.102 86.07 86.102z" data-original="#000000" fill="#000000" opacity="1"></path></g></svg>