<?xml version="1.0" encoding="UTF-8" standalone="no"?>
<!-- Created with Inkscape (http://www.inkscape.org/) -->

<svg
   version="1.1"
   id="svg1"
   width="5333.3335"
   height="5333.3335"
   viewBox="0 0 5333.3335 5333.3335"
   sodipodi:docname="vecteezy_avatar-vector-flat-icon-for-personal-and-commercial-use_36193505.svg"
   inkscape:version="1.3 (0e150ed6c4, 2023-07-21)"
   xml:space="preserve"
   xmlns:inkscape="http://www.inkscape.org/namespaces/inkscape"
   xmlns:sodipodi="http://sodipodi.sourceforge.net/DTD/sodipodi-0.dtd"
   xmlns="http://www.w3.org/2000/svg"
   xmlns:svg="http://www.w3.org/2000/svg"><defs
     id="defs1" /><sodipodi:namedview
     id="namedview1"
     pagecolor="#ffffff"
     bordercolor="#000000"
     borderopacity="0.25"
     inkscape:showpageshadow="2"
     inkscape:pageopacity="0.0"
     inkscape:pagecheckerboard="0"
     inkscape:deskcolor="#d1d1d1"
     inkscape:zoom="0.10646376"
     inkscape:cx="1573.3053"
     inkscape:cy="3029.1997"
     inkscape:window-width="1920"
     inkscape:window-height="1017"
     inkscape:window-x="-9"
     inkscape:window-y="29"
     inkscape:window-maximized="1"
     inkscape:current-layer="svg1"><inkscape:page
       x="0"
       y="0"
       inkscape:label="1"
       id="page1"
       width="5333.3335"
       height="5333.3335"
       margin="0"
       bleed="0" /></sodipodi:namedview><g
     id="group-R5"
     transform="matrix(1.2091292,0,0,1.2091292,-557.67771,-470.48664)"><path
       id="path2"
       d="m 25230,24692.8 v 0 C 24945.4,23333.5 24143,22138.3 22992.8,21360 v 0 c -1807.8,-1221.7 -4176.6,-1221.7 -5984.4,0 v 0 c -1203.2,813.3 -2023.4,2081.5 -2271.6,3512.4 v 0 l 350.4,2310.8 c 34,169.6 58.8,340.8 80,512.8 203.2,1751.2 1365.6,2442 2282,2714.4 522.6,151.4 1073.6,177.1 1608,74.8 688.3,-128.7 1387,-194.3 2087.2,-196 1504.8,0 2396,320 2396.4,320 0,-1374 815.6,-1477.2 1060.4,-1477.2 23,-0.2 45.9,0.8 68.8,3.2 l 560,-4442.4"
       style="fill:#fbd2a0;fill-opacity:1;fill-rule:nonzero;stroke:none"
       transform="matrix(0.13333333,0,0,-0.13333333,0,5333.3333)" /><path
       id="path3"
       d="M 30810.8,10973.2 V 4000 H 9189.2 v 6973.2 c -0.22,3589.4 2909.4,6499.4 6498.8,6499.6 0.1,0 0.3,0 0.4,0 h 8623.2 c 3589.4,0 6499.2,-2909.8 6499.2,-6499.2 0,-0.1 0,-0.3 0,-0.4"
       style="fill:#e9f2f4;fill-opacity:1;fill-rule:nonzero;stroke:none"
       transform="matrix(0.13333333,0,0,-0.13333333,0,5333.3333)" /><path
       id="path4"
       d="M 22992.8,17472.8 20000,13466.4 17007.2,17472.8 c 1544,2027.6 40,3840 0,3885.6 1807.8,-1221.7 4176.6,-1221.7 5984.4,0 -31.6,-38.4 -1546,-1853.6 1.2,-3885.6"
       style="fill:#f1bb7f;fill-opacity:1;fill-rule:nonzero;stroke:none"
       transform="matrix(0.13333333,0,0,-0.13333333,0,5333.3333)" /><path
       id="path5"
       d="m 27261.2,4000 v 0 h -1400 v 0 l 686.8,6400 c 1.3,7.2 8.1,12 15.3,10.7 5.5,-0.9 9.7,-5.2 10.7,-10.7 l 687.2,-6400"
       style="fill:#c9dee2;fill-opacity:1;fill-rule:nonzero;stroke:none"
       transform="matrix(0.13333333,0,0,-0.13333333,0,5333.3333)" /><path
       id="path6"
       d="m 14138.8,4054 c 0,-18.1 -0.8,-36.1 -2.4,-54 h -1395.2 c -1.6,18.1 -2.4,36.1 -2.4,54 v 0 l 686.8,6400 c 1.3,7.2 8.1,12 15.3,10.7 5.5,-1 9.7,-5.2 10.7,-10.7 l 686.8,-6400 c 0.1,0 0.3,0 0.4,0"
       style="fill:#c9dee2;fill-opacity:1;fill-rule:nonzero;stroke:none"
       transform="matrix(0.13333333,0,0,-0.13333333,0,5333.3333)" /><path
       id="path7"
       d="m 26644,30853.6 c -33.6,-436.8 -49.6,-874.4 -43.2,-1312 16,-1112 371.6,-3132.8 -1370.8,-4849.2 v 0 l -562.4,4443.2 c -22.9,-2.4 -45.8,-3.4 -68.8,-3.2 -244.8,0 -1060.4,103.2 -1060.4,1477.2 0,0 -891.6,-320 -2396.4,-320 -700.2,1.7 -1398.9,67.3 -2087.2,196 -534.4,102.3 -1085.4,76.6 -1608,-74.8 -916.4,-272.4 -2080,-963.2 -2282,-2714.4 -20,-172 -44.8,-343.2 -80,-512.8 l -350.4,-2310.8 v 0 c 0,0 -3230.4,7404.8 354.8,9612 97.2,60 193.6,120 290,183.6 894.8,575.6 5266.4,3068.4 8651.2,-741.2 175.2,-196.9 395.9,-348 642.8,-440 701.2,-264.8 2154,-277.6 1970.8,-2633.6"
       style="fill:#67423a;fill-opacity:1;fill-rule:nonzero;stroke:none"
       transform="matrix(0.13333333,0,0,-0.13333333,0,5333.3333)" /></g></svg>
