<?xml version="1.0" encoding="UTF-8" standalone="no"?>
<!-- Created with Inkscape (http://www.inkscape.org/) -->

<svg
   version="1.1"
   id="svg1"
   width="5333.3335"
   height="5333.3335"
   viewBox="0 0 5333.3335 5333.3335"
   sodipodi:docname="patient-female.svg"
   xml:space="preserve"
   inkscape:version="1.3 (0e150ed6c4, 2023-07-21)"
   xmlns:inkscape="http://www.inkscape.org/namespaces/inkscape"
   xmlns:sodipodi="http://sodipodi.sourceforge.net/DTD/sodipodi-0.dtd"
   xmlns="http://www.w3.org/2000/svg"
   xmlns:svg="http://www.w3.org/2000/svg"><defs
     id="defs1" /><sodipodi:namedview
     id="namedview1"
     pagecolor="#ffffff"
     bordercolor="#000000"
     borderopacity="0.25"
     inkscape:showpageshadow="2"
     inkscape:pageopacity="0.0"
     inkscape:pagecheckerboard="0"
     inkscape:deskcolor="#d1d1d1"
     inkscape:zoom="0.10646376"
     inkscape:cx="2329.4311"
     inkscape:cy="2878.9139"
     inkscape:window-width="1920"
     inkscape:window-height="1017"
     inkscape:window-x="-9"
     inkscape:window-y="29"
     inkscape:window-maximized="1"
     inkscape:current-layer="svg1"><inkscape:page
       x="0"
       y="0"
       inkscape:label="1"
       id="page1"
       width="5333.3335"
       height="5333.3335"
       margin="0"
       bleed="0" /></sodipodi:namedview><g
     id="group-R5"
     transform="matrix(1.2091291,0,0,1.2091746,-557.67743,-470.70456)"><path
       id="path2"
       d="m 17007.2,17472.8 h -1320 c -1344.4,2.1 -2656,-414.9 -3752.4,-1192.8 -594,273.6 -1214.4,738 -1842.8,1464.4 0,0 4222.4,2330.8 3946,9104.8 195.3,-671.5 428.2,-1331.5 697.6,-1976.8 v 0 c 248.2,-1430.9 1068.4,-2699.1 2271.6,-3512.4 v 0 c 38.8,-46.8 1544,-1859.6 0,-3887.2"
       style="fill:#67423a;fill-opacity:1;fill-rule:nonzero;stroke:none"
       transform="matrix(0.13333333,0,0,-0.13333333,0,5333.3333)" /><path
       id="path3"
       d="m 29908,17744 c -628,-726.4 -1248.8,-1190.8 -1842.8,-1464 -1096.7,778.3 -2408.8,1195.4 -3753.6,1193.2 h -1320 c -1547.2,2032 -32.4,3848 0,3886 v 0 c 1150.3,778.3 1952.7,1973.7 2237.2,3333.2 v 0 c 320.6,312.1 594.9,668.5 814.4,1058.4 C 26224.4,19820.4 29908,17744 29908,17744"
       style="fill:#67423a;fill-opacity:1;fill-rule:nonzero;stroke:none"
       transform="matrix(0.13333333,0,0,-0.13333333,0,5333.3333)" /><path
       id="path4"
       d="m 25230,24692.8 v 0 C 24945.4,23333.5 24143,22138.3 22992.8,21360 v 0 c -1807.8,-1221.7 -4176.6,-1221.7 -5984.4,0 v 0 c -1203.2,813.3 -2023.4,2081.5 -2271.6,3512.4 v 0 l 350.4,2310.8 c 34,169.6 58.8,340.8 80,512.8 203.2,1751.2 1365.6,2442 2282,2714.4 522.6,151.4 1073.6,177.1 1608,74.8 688.3,-128.7 1387,-194.3 2087.2,-196 1504.8,0 2396,320 2396.4,320 0,-1374 815.6,-1477.2 1060.4,-1477.2 23,-0.2 45.9,0.8 68.8,3.2 l 560,-4442.4"
       style="fill:#fbd2a0;fill-opacity:1;fill-rule:nonzero;stroke:none"
       transform="matrix(0.13333333,0,0,-0.13333333,0,5333.3333)" /><path
       id="path5"
       d="M 30810.8,10973.2 V 4000 H 9189.2 v 6973.2 c -0.66,3589 2908.2,6498.9 6497.2,6499.6 0.7,0 1.3,0 2,0 h 1320 l 2991.6,-4006.4 2992.8,4006.4 h 1320 c 3589,-0.2 6498.2,-2909.8 6498,-6498.8 0,-0.3 0,-0.5 0,-0.8"
       style="fill:#e9f2f4;fill-opacity:1;fill-rule:nonzero;stroke:none"
       transform="matrix(0.13333333,0,0,-0.13333333,0,5333.3333)" /><path
       id="path6"
       d="M 22992.8,17472.8 20000,13466.4 17007.2,17472.8 c 1544,2027.6 40,3840 0,3885.6 1807.8,-1221.7 4176.6,-1221.7 5984.4,0 -31.6,-38.4 -1546,-1853.6 1.2,-3885.6"
       style="fill:#f1bb7f;fill-opacity:1;fill-rule:nonzero;stroke:none"
       transform="matrix(0.13333333,0,0,-0.13333333,0,5333.3333)" /><path
       id="path7"
       d="m 14040,4000 h -1200 l 575.2,6155.2 c 0.1,13.7 11.2,24.8 24.9,24.7 13.6,-0.1 24.6,-11.1 24.7,-24.7 L 14040,4000"
       style="fill:#c9dee2;fill-opacity:1;fill-rule:nonzero;stroke:none"
       transform="matrix(0.13333333,0,0,-0.13333333,0,5333.3333)" /><path
       id="path8"
       d="m 27160,4000 h -1200 l 569.2,6090 c 0.1,17 14,30.7 31,30.6 16.9,-0.1 30.5,-13.7 30.6,-30.6 L 27160,4000"
       style="fill:#c9dee2;fill-opacity:1;fill-rule:nonzero;stroke:none"
       transform="matrix(0.13333333,0,0,-0.13333333,0,5333.3333)" /><path
       id="path9"
       d="m 26644,30853.6 c -33.6,-436.8 -49.6,-874.4 -43.2,-1312 12.8,-889.2 242.8,-2360 -556.4,-3790 v 0 c -219.5,-389.9 -493.8,-746.3 -814.4,-1058.4 l -562.4,4442.4 c -22.9,-2.4 -45.8,-3.4 -68.8,-3.2 -244.8,0 -1060.4,103.2 -1060.4,1477.2 0,0 -891.6,-320 -2396.4,-320 -700.2,1.7 -1398.9,67.3 -2087.2,196 -534.4,102.3 -1085.4,76.6 -1608,-74.8 -916.4,-272.4 -2080,-963.2 -2282,-2714.4 -20,-172 -44.8,-343.2 -80,-512.8 l -350.4,-2310.8 c -268.3,645.1 -500.2,1304.8 -694.4,1976 -694.4,2355.6 -1346.4,6158 1052.4,7634.8 97.2,60 193.6,120 290,183.6 894.8,575.6 5266.4,3068.4 8651.2,-741.2 175.2,-196.9 395.9,-348 642.8,-440 698,-263.6 2150.8,-276.4 1967.6,-2632.4"
       style="fill:#67423a;fill-opacity:1;fill-rule:nonzero;stroke:none"
       transform="matrix(0.13333333,0,0,-0.13333333,0,5333.3333)" /></g></svg>
