<?xml version="1.0" encoding="UTF-8" standalone="no"?>
<!-- Generator: Adobe Illustrator 18.0.0, SVG Export Plug-In . SVG Version: 6.00 Build 0)  -->

<svg
   version="1.1"
   id="Capa_1"
   x="0px"
   y="0px"
   viewBox="0 0 144.773 144.773"
   style="enable-background:new 0 0 144.773 144.773;"
   xml:space="preserve"
   sodipodi:docname="userMale.svg"
   inkscape:version="1.3 (0e150ed6c4, 2023-07-21)"
   xmlns:inkscape="http://www.inkscape.org/namespaces/inkscape"
   xmlns:sodipodi="http://sodipodi.sourceforge.net/DTD/sodipodi-0.dtd"
   xmlns:xlink="http://www.w3.org/1999/xlink"
   xmlns="http://www.w3.org/2000/svg"
   xmlns:svg="http://www.w3.org/2000/svg"><defs
   id="defs29" /><sodipodi:namedview
   id="namedview29"
   pagecolor="#ffffff"
   bordercolor="#000000"
   borderopacity="0.25"
   inkscape:showpageshadow="2"
   inkscape:pageopacity="0.0"
   inkscape:pagecheckerboard="0"
   inkscape:deskcolor="#d1d1d1"
   inkscape:zoom="5.6018735"
   inkscape:cx="72.386497"
   inkscape:cy="72.386497"
   inkscape:window-width="1920"
   inkscape:window-height="1025"
   inkscape:window-x="-9"
   inkscape:window-y="21"
   inkscape:window-maximized="1"
   inkscape:current-layer="Capa_1" />&#10;<g
   id="g14">&#10;	&#10;	<g
   id="g13">&#10;		<defs
   id="defs1">&#10;			<circle
   id="SVGID_1_"
   cx="72.387"
   cy="72.386"
   r="72.386" />&#10;		</defs>&#10;		<clipPath
   id="SVGID_2_">&#10;			<use
   xlink:href="#SVGID_1_"
   style="overflow:visible;"
   id="use1" />&#10;		</clipPath>&#10;		<g
   style="clip-path:url(#SVGID_2_);"
   clip-path="url(#SVGID_2_)"
   id="g12">&#10;			<g
   id="g7">&#10;				<path
   style="fill:#F1C9A5;"
   d="M107.053,116.94c-4.666-8.833-34.666-14.376-34.666-14.376s-30,5.543-34.666,14.376      c-3.449,12.258-6.334,27.833-6.334,27.833h41h41C113.387,144.773,111.438,128.073,107.053,116.94z"
   id="path1" />&#10;				<path
   style="fill:#E4B692;"
   d="M72.387,102.564c0,0,30,5.543,34.666,14.376c4.386,11.133,6.334,27.833,6.334,27.833h-41V102.564      z"
   id="path2" />&#10;				<rect
   x="64.22"
   y="84.606"
   style="fill:#F1C9A5;"
   width="16.334"
   height="27.336"
   id="rect2" />&#10;				<rect
   x="72.387"
   y="84.606"
   style="fill:#E4B692;"
   width="8.167"
   height="27.336"
   id="rect3" />&#10;				<path
   style="opacity:0.1;fill:#DDAC8C;"
   d="M64.22,97.273c1.469,4.217,7.397,6.634,11.751,6.634      c1.575,0,3.107-0.264,4.583-0.747V84.606H64.22V97.273z"
   id="path3" />&#10;				<path
   style="fill:#F1C9A5;"
   d="M93.387,67.357c0-17.074-9.402-26.783-21-26.783c-11.598,0-21,9.709-21,26.783      c0,22.966,9.402,30.917,21,30.917C83.984,98.274,93.387,89.366,93.387,67.357z"
   id="path4" />&#10;				<path
   style="fill:#E4B692;"
   d="M90.19,79.197c-3.807-0.399-6.377-4.5-5.733-9.156c0.637-4.66,4.242-8.12,8.051-7.724      c3.805,0.396,6.371,4.496,5.729,9.156C97.599,76.134,93.997,79.591,90.19,79.197z"
   id="path5" />&#10;				<path
   style="fill:#F1C9A5;"
   d="M46.685,71.474c-0.643-4.66,1.924-8.76,5.727-9.156c3.81-0.397,7.416,3.063,8.055,7.724      c0.642,4.656-1.93,8.758-5.734,9.156C50.925,79.591,47.323,76.134,46.685,71.474z"
   id="path6" />&#10;				<path
   style="fill:#E4B692;"
   d="M93.387,67.357c0-17.074-9.402-26.783-21-26.783v57.7C83.984,98.274,93.387,89.366,93.387,67.357      z"
   id="path7" />&#10;			</g>&#10;			<path
   style="fill:#0D313D;"
   d="M107.053,116.94c-2.726-5.158-14.082-9.191-23.065-11.656l-11.601,39.489l-11.601-39.489     c-8.983,2.465-20.34,6.498-23.066,11.656c-3.449,12.258-6.334,27.833-6.334,27.833h41h41     C113.387,144.773,111.438,128.073,107.053,116.94z"
   id="path8" />&#10;			<polygon
   style="fill:#F1F2F2;"
   points="60.413,105.284 72.387,144.773 84.032,105.284 72.387,118.544    "
   id="polygon8" />&#10;			<polygon
   style="fill:#2B5770;"
   points="72.387,144.773 90.115,125.028 84.032,122.724 94.615,108.349 84.331,105.284    "
   id="polygon9" />&#10;			<polygon
   style="fill:#2B5770;"
   points="72.387,144.773 54.658,125.028 60.741,122.724 50.158,108.349 60.442,105.284    "
   id="polygon10" />&#10;			<path
   style="fill:#FFFFFF;"
   d="M57.359,121.332l9.077-8.437l5.935,5.648l-8.152-14.161l-4.979,0.383     C58.883,110.271,57.359,121.332,57.359,121.332z"
   id="path10" />&#10;			<path
   style="fill:#FFFFFF;"
   d="M87.385,121.332l-9.077-8.437l-5.936,5.648l8.152-14.161l4.979,0.383     C85.861,110.271,87.385,121.332,87.385,121.332z"
   id="path11" />&#10;			<path
   style="fill:#262421;"
   d="M95.443,63.508c0,0-3.744-2.825-5.348,5.467c0.521-7.792,0.142-18.541-6.181-20.508     c-3.513,6.321-17.418,10.393-26.549,8.146c0.701,7.165-1.404,13.066-3.793,14.61c0.14-5.76,0.138-9.273-3.514-8.148     c-0.982-12.08,5.634-27.393,23.474-27.393C91.373,35.683,97.27,47.773,95.443,63.508z"
   id="path12" />&#10;		</g>&#10;	</g>&#10;</g>&#10;<g
   id="g15">&#10;</g>&#10;<g
   id="g16">&#10;</g>&#10;<g
   id="g17">&#10;</g>&#10;<g
   id="g18">&#10;</g>&#10;<g
   id="g19">&#10;</g>&#10;<g
   id="g20">&#10;</g>&#10;<g
   id="g21">&#10;</g>&#10;<g
   id="g22">&#10;</g>&#10;<g
   id="g23">&#10;</g>&#10;<g
   id="g24">&#10;</g>&#10;<g
   id="g25">&#10;</g>&#10;<g
   id="g26">&#10;</g>&#10;<g
   id="g27">&#10;</g>&#10;<g
   id="g28">&#10;</g>&#10;<g
   id="g29">&#10;</g>&#10;</svg>
