<svg style="enable-background:new 0 0 512 512" class="" height="512" version="1.1" viewBox="0 0 512 512" width="512"
    x="0" xmlns="http://www.w3.org/2000/svg" y="0" xml:space="preserve"><g><path clip-rule="evenodd" d="M389.662 153.459c5.516 0 9.996 4.484 9.996 10.001 0 5.513-4.48 10.001-9.996 10.001-5.469 0-9.996-4.488-9.996-10.001 0-5.517 4.527-10.001 9.996-10.001zm0 37.999c15.465 0 28.008-12.562 28.008-27.998 0-15.442-12.543-28.003-28.008-28.003-15.418 0-27.961 12.561-27.961 28.003 0 15.436 12.543 27.998 27.961 27.998zm-79.92-27.998c0-5.517 4.479-10.001 9.996-10.001s9.996 4.484 9.996 10.001c0 5.513-4.479 10.001-9.996 10.001s-9.996-4.488-9.996-10.001zm38.004 0c0-15.442-12.59-28.003-28.008-28.003-15.467 0-28.008 12.561-28.008 28.003 0 15.437 12.541 27.998 28.008 27.998 15.418 0 28.008-12.562 28.008-27.998zm-97.978 10.001c-5.518 0-9.996-4.488-9.996-10.001 0-5.517 4.479-10.001 9.996-10.001 5.516 0 9.996 4.484 9.996 10.001 0 5.513-4.481 10.001-9.996 10.001zm0-38.004c-15.418 0-28.008 12.561-28.008 28.003 0 15.437 12.59 27.998 28.008 27.998 15.465 0 28.008-12.562 28.008-27.998-.001-15.442-12.544-28.003-28.008-28.003zm196.994 160.27 37.107 14.768-14.758-37.107c-1.133-2.801-.801-5.969.943-8.444 14.334-20.78 21.924-45.156 21.924-70.5 0-37.96-17.539-73.271-46.066-96.479 10.232 19.615 16.031 41.889 16.031 65.497 0 78.401-63.793 142.187-142.205 142.187-2.594 0-5.186-.089-7.732-.23 39.652 19.973 88.125 17.653 126.316-8.732 2.451-1.714 5.61-2.074 8.44-.96zm-202.655-31.623c1.793 0 3.586.541 5.141 1.598 20.746 14.357 45.123 21.949 70.49 21.949 68.463 0 124.193-55.714 124.193-124.19S388.201 39.27 319.738 39.27c-68.51 0-124.195 55.714-124.195 124.19 0 25.343 7.592 49.726 21.926 70.499 1.744 2.476 2.074 5.645.99 8.445l-14.805 37.107 37.105-14.768a9.097 9.097 0 0 1 3.348-.639zm243.44 7.01c14.711-22.882 22.443-49.286 22.443-76.672 0-29.601-9.004-57.976-26.027-82.056-16.313-23.033-38.758-40.488-64.926-50.598-25.648-25.051-60.73-40.521-99.299-40.521-78.412 0-142.205 63.791-142.205 142.192 0 27.385 7.73 53.784 22.441 76.671l-20.746 52.14c-1.32 3.343-.564 7.153 1.98 9.694a9.035 9.035 0 0 0 9.715 1.994l52.148-20.746a139.786 139.786 0 0 0 25.32 12.857c23.148 22.67 53.75 36.787 86.379 39.801 4.385.405 8.816.607 13.203.607 27.109 0 53.75-7.723 76.477-22.287l52.148 20.756a9.039 9.039 0 0 0 9.715-2c2.545-2.541 3.348-6.352 1.98-9.689zM331.666 433.402c2.973-3.961 4.197-8.789 3.443-13.594-.756-4.805-3.395-9.025-7.451-11.883l-53.609-37.875c-3.488-2.471-7.449-3.782-11.504-3.782-3.488 0-6.885.942-10.09 2.806L220.25 387.74a9.056 9.056 0 0 1-9.807-.484c-38.191-27.531-77.469-66.779-104.957-104.986a9.069 9.069 0 0 1-.52-9.773l18.672-32.229c4.055-6.963 3.678-15.045-.99-21.618l-37.861-53.581c-3.441-4.866-8.77-7.658-14.664-7.658-3.867 0-7.639 1.254-10.797 3.627-12.824 9.6-23.246 18.799-35.93 31.755-2.922 2.999-3.961 6.597-3.113 10.698 24.143 116.618 152.346 244.816 268.949 268.961 4.055.84 7.732-.23 10.703-3.135 12.965-12.679 22.161-23.086 31.731-35.915zm6.367-40.173-53.563-37.876c-6.555-4.635-14.146-7.082-21.926-7.082-6.602 0-13.203 1.806-19.098 5.229l-27.156 15.721c-33.668-25.07-67.709-59.132-92.793-92.788l15.748-27.145c7.545-13.019 6.838-28.738-1.887-41.026l-37.861-53.581c-6.789-9.562-17.729-15.272-29.375-15.272-7.781 0-15.277 2.494-21.547 7.215-13.676 10.184-24.66 19.92-38.051 33.585-7.074 7.224-9.902 17.04-7.875 26.933 12.164 58.654 50.355 123.553 104.863 178.059 54.506 54.506 119.434 92.736 178.088 104.883 2.074.428 4.197.65 6.271.65 7.684 0 14.992-3.037 20.652-8.549 13.672-13.371 23.387-24.387 33.57-38.008 5.895-7.884 8.297-17.541 6.789-27.178-1.552-9.644-6.786-18.089-14.849-23.77z" data-original="#000000" fill="#000000" fill-rule="evenodd" opacity="1"></path></g></svg>